<svg width="30" height="28" viewBox="0 0 30 28" fill="none" xmlns="http://www.w3.org/2000/svg">
<g id="&#237;&#136;&#172;&#235;&#141;&#176;&#236;&#157;&#180;" clip-path="url(#clip0_322_81)">
<path id="Vector" d="M23.444 4.07617H26.2568C26.3902 4.07617 26.5237 4.09218 26.6464 4.11353C26.7745 4.14022 26.892 4.17758 27.0094 4.22562C27.1268 4.27366 27.2336 4.33237 27.3403 4.40709C27.4417 4.47648 27.5378 4.55654 27.6285 4.64194C27.7139 4.72733 27.794 4.82341 27.8634 4.93016C27.9328 5.03157 27.9915 5.14365 28.0448 5.26107C28.0929 5.3785 28.1302 5.50126 28.1569 5.62402C28.1836 5.75212 28.1943 5.88021 28.1943 6.01365V24.2569C28.1943 24.3903 28.1783 24.5238 28.1569 24.6465C28.1302 24.7746 28.0929 24.8974 28.0448 25.0095C27.9968 25.1269 27.9328 25.2336 27.8634 25.3404C27.794 25.4418 27.7139 25.5379 27.6285 25.6286C27.5378 25.714 27.4417 25.7941 27.3403 25.8634C27.2389 25.9328 27.1268 25.9915 27.0094 26.0449C26.892 26.0929 26.7692 26.1303 26.6464 26.157C26.5183 26.1837 26.3902 26.1944 26.2568 26.1944H3.74366C3.61023 26.1944 3.47679 26.1783 3.35403 26.157C3.22593 26.1303 3.10851 26.0929 2.99109 26.0449C2.87367 25.9969 2.76692 25.9328 2.66017 25.8634C2.55876 25.7941 2.46269 25.714 2.37195 25.6286C2.28655 25.5379 2.20649 25.4418 2.1371 25.3404C2.06772 25.239 2.00901 25.1269 1.96097 25.0095C1.91293 24.892 1.87557 24.7693 1.84889 24.6465C1.8222 24.5184 1.81152 24.3903 1.81152 24.2569V6.01899C1.81152 5.88555 1.82754 5.75212 1.84889 5.62936C1.87557 5.50126 1.91293 5.38383 1.96097 5.26641C2.00901 5.14899 2.06772 5.04224 2.1371 4.93549C2.20649 4.83408 2.28655 4.73801 2.37195 4.64727C2.46269 4.56188 2.55876 4.48181 2.66017 4.41243C2.76158 4.34304 2.87367 4.28433 2.99109 4.23096C3.10851 4.18292 3.23127 4.14556 3.35403 4.11887C3.48213 4.09218 3.61023 4.08151 3.74366 4.08151H6.55647" stroke="#4C4E52" stroke-width="1.8" stroke-linecap="round" stroke-linejoin="round"/>
<path id="Vector 6" d="M1.8042 6.91227L1.92871 10.8078L2.15663 24.6292L3.42064 25.9347L24.9503 26.1419L27.354 25.3337L28.2451 22.8679V10.352L27.9757 6.29063L27.1675 4.6329L23.3755 3.94909L18.8582 3.20312H7.25413L3.89724 4.17696L2.6125 5.00568L1.8042 6.91227Z" fill="#4C4E52"/>
<path id="Vector_2" d="M22.7821 5.80199C22.7821 6.74117 21.9422 7.49951 20.9021 7.49951C19.8619 7.49951 19.022 6.74117 19.022 5.80199V2.83278C19.022 1.8936 19.8619 1.13525 20.9021 1.13525C21.9422 1.13525 22.7821 1.8936 22.7821 2.83278V5.80199Z" fill="white" stroke="#4C4E52" stroke-width="1.8" stroke-linecap="round" stroke-linejoin="round"/>
<path id="Vector_3" d="M10.7821 5.80199C10.7821 6.74117 9.94225 7.49951 8.90206 7.49951C7.86187 7.49951 7.02197 6.74117 7.02197 5.80199V2.83278C7.02197 1.8936 7.86187 1.13525 8.90206 1.13525C9.94225 1.13525 10.7821 1.8936 10.7821 2.83278V5.80199Z" fill="white" stroke="#4C4E52" stroke-width="1.8" stroke-linecap="round" stroke-linejoin="round"/>
<path id="Vector_4" d="M7.33545 12.5518H8.88863" stroke="white" stroke-width="1.8" stroke-linecap="round" stroke-linejoin="round"/>
<path id="Vector_5" d="M14.2207 12.5518H15.7739" stroke="white" stroke-width="1.8" stroke-linecap="round" stroke-linejoin="round"/>
<path id="Vector_6" d="M21.106 12.5518H22.6645" stroke="white" stroke-width="1.8" stroke-linecap="round" stroke-linejoin="round"/>
<path id="Vector_7" d="M7.33545 18.2686H8.88863" stroke="white" stroke-width="1.8" stroke-linecap="round" stroke-linejoin="round"/>
<path id="Vector_8" d="M14.2207 18.2686H15.7739" stroke="white" stroke-width="1.8" stroke-linecap="round" stroke-linejoin="round"/>
<path id="Vector_9" d="M21.106 18.2686H22.6645" stroke="white" stroke-width="1.8" stroke-linecap="round" stroke-linejoin="round"/>
</g>
<defs>
<clipPath id="clip0_322_81">
<rect width="30" height="28" fill="white"/>
</clipPath>
</defs>
</svg>
