<svg width="25" height="28" viewBox="0 0 25 28" fill="none" xmlns="http://www.w3.org/2000/svg">
<g id="&#237;&#153;&#136;" clip-path="url(#clip0_322_5)">
<path id="Vector" d="M17.5129 26.7749H22.4254C22.627 26.7749 22.8191 26.7327 22.9973 26.6577C23.1707 26.5827 23.3301 26.4749 23.466 26.3437C23.5973 26.2124 23.7098 26.053 23.7801 25.8749C23.8551 25.7015 23.8973 25.5046 23.8973 25.303V11.9155C23.8973 11.714 23.8645 11.4937 23.8082 11.2687C23.752 11.0437 23.6676 10.8187 23.5645 10.603C23.4613 10.3874 23.3395 10.1765 23.2035 9.98897C23.0676 9.80147 22.9176 9.6374 22.7629 9.51084L20.5082 7.65459L18.2535 5.79834L15.9988 3.94209L13.7441 2.08584C13.5895 1.95928 13.4066 1.86084 13.2145 1.79521C13.0223 1.72959 12.816 1.69678 12.6098 1.69678C12.4035 1.69678 12.1973 1.72959 12.0051 1.79521C11.8129 1.86084 11.6301 1.95459 11.4754 2.08584L9.2207 3.94209L6.96602 5.79834L4.71133 7.65459L2.45664 9.51084C2.30195 9.6374 2.15195 9.80147 2.01602 9.98897C1.88008 10.1765 1.7582 10.3827 1.65508 10.603C1.55195 10.8187 1.46758 11.0483 1.41133 11.2687C1.35508 11.4937 1.32227 11.7093 1.32227 11.9155V25.303C1.32227 25.5046 1.36445 25.6968 1.43945 25.8749C1.51445 26.053 1.62227 26.2077 1.75352 26.3437C1.88477 26.4749 2.04414 26.5827 2.22227 26.6577C2.3957 26.7327 2.59258 26.7749 2.79414 26.7749H7.70664" stroke="#4C4E52" stroke-width="1.8" stroke-linecap="round" stroke-linejoin="round"/>
<path id="Vector_2" d="M10.3687 26.7608V21.6608C10.3687 20.6296 11.2077 19.7905 12.239 19.7905H12.9608C13.9921 19.7905 14.8312 20.6296 14.8312 21.6608V26.7608" stroke="#4C4E52" stroke-width="1.8" stroke-linecap="round" stroke-linejoin="round"/>
</g>
<defs>
<clipPath id="clip0_322_5">
<rect width="25" height="28" fill="white"/>
</clipPath>
</defs>
</svg>
